<svg width="20" height="18" viewBox="0 0 20 18" fill="none" xmlns="http://www.w3.org/2000/svg">
<mask id="path-1-inside-1_5_246" fill="white">
<path fill-rule="evenodd" clip-rule="evenodd" d="M10.881 0.641879C10.4872 0.230488 9.82992 0.230488 9.43616 0.641879L0.610872 9.86232C0.00212276 10.4983 0.452905 11.5538 1.33329 11.5538H5.32524V14.8871C5.32524 15.8205 5.32524 16.2872 5.5069 16.6438C5.66668 16.9574 5.92165 17.2123 6.23526 17.3721C6.59177 17.5538 7.05849 17.5538 7.99191 17.5538H12.3252C13.2587 17.5538 13.7254 17.5538 14.0819 17.3721C14.3955 17.2123 14.6505 16.9574 14.8103 16.6438C14.9919 16.2872 14.9919 15.8205 14.9919 14.8871V11.5538H18.9839C19.8642 11.5538 20.315 10.4983 19.7063 9.86232L10.881 0.641879Z"/>
</mask>
<path d="M9.43616 0.641879L8.47293 -0.280064L9.43616 0.641879ZM10.881 0.641879L9.91777 1.56382L10.881 0.641879ZM0.610872 9.86232L-0.352351 8.94038H-0.352352L0.610872 9.86232ZM5.32524 11.5538H6.65857V10.2204H5.32524V11.5538ZM5.5069 16.6438L6.6949 16.0384L6.6949 16.0384L5.5069 16.6438ZM6.23526 17.3721L5.62993 18.5601L5.62993 18.5601L6.23526 17.3721ZM14.0819 17.3721L14.6872 18.5601L14.6872 18.5601L14.0819 17.3721ZM14.8103 16.6438L13.6222 16.0384L13.6222 16.0384L14.8103 16.6438ZM14.9919 11.5538V10.2204H13.6586V11.5538H14.9919ZM19.7063 9.86232L20.6695 8.94038V8.94038L19.7063 9.86232ZM10.3994 1.56382C10.2681 1.70095 10.049 1.70095 9.91777 1.56382L11.8442 -0.280064C10.9254 -1.23998 9.3917 -1.23998 8.47293 -0.280064L10.3994 1.56382ZM1.5741 10.7843L10.3994 1.56382L8.47293 -0.280064L-0.352351 8.94038L1.5741 10.7843ZM1.33329 10.2204C1.62675 10.2204 1.77701 10.5723 1.5741 10.7843L-0.352352 8.94038C-1.77277 10.4244 -0.720942 12.8871 1.33329 12.8871V10.2204ZM5.32524 10.2204H1.33329V12.8871H5.32524V10.2204ZM6.65857 14.8871V11.5538H3.99191V14.8871H6.65857ZM6.6949 16.0384C6.71581 16.0795 6.69282 16.0687 6.67685 15.8732C6.65961 15.6622 6.65857 15.3758 6.65857 14.8871H3.99191C3.99191 15.3318 3.99087 15.7455 4.01904 16.0904C4.04849 16.4507 4.11632 16.8515 4.31889 17.2491L6.6949 16.0384ZM6.84058 16.1841C6.77786 16.1522 6.72686 16.1012 6.6949 16.0384L4.31889 17.2491C4.60651 17.8136 5.06545 18.2725 5.62993 18.5601L6.84058 16.1841ZM7.99191 16.2204C7.5032 16.2204 7.21685 16.2194 7.00582 16.2022C6.81035 16.1862 6.79955 16.1632 6.84058 16.1841L5.62993 18.5601C6.02748 18.7627 6.42829 18.8305 6.78867 18.86C7.13348 18.8882 7.5472 18.8871 7.99191 18.8871V16.2204ZM12.3252 16.2204H7.99191V18.8871H12.3252V16.2204ZM13.4766 16.1841C13.5176 16.1632 13.5068 16.1862 13.3113 16.2022C13.1003 16.2194 12.814 16.2204 12.3252 16.2204V18.8871C12.7699 18.8871 13.1837 18.8882 13.5285 18.86C13.8889 18.8305 14.2897 18.7627 14.6872 18.5601L13.4766 16.1841ZM13.6222 16.0384C13.5903 16.1012 13.5393 16.1522 13.4766 16.1841L14.6872 18.5601C15.2517 18.2725 15.7106 17.8136 15.9983 17.2491L13.6222 16.0384ZM13.6586 14.8871C13.6586 15.3758 13.6575 15.6622 13.6403 15.8732C13.6243 16.0687 13.6013 16.0795 13.6222 16.0384L15.9983 17.2491C16.2008 16.8515 16.2687 16.4507 16.2981 16.0904C16.3263 15.7455 16.3252 15.3318 16.3252 14.8871H13.6586ZM13.6586 11.5538V14.8871H16.3252V11.5538H13.6586ZM18.9839 10.2204H14.9919V12.8871H18.9839V10.2204ZM18.743 10.7843C18.5401 10.5723 18.6904 10.2204 18.9839 10.2204V12.8871C21.0381 12.8871 22.0899 10.4244 20.6695 8.94038L18.743 10.7843ZM9.91777 1.56382L18.743 10.7843L20.6695 8.94038L11.8442 -0.280064L9.91777 1.56382Z" fill="black" mask="url(#path-1-inside-1_5_246)"/>
</svg>
