<svg width="18" height="12" viewBox="0 0 18 12" fill="none" xmlns="http://www.w3.org/2000/svg">
<path fill-rule="evenodd" clip-rule="evenodd" d="M16.2129 0.499146H15.2129C14.6606 0.499146 14.2129 0.946861 14.2129 1.49915V10.1658C14.2129 10.7181 14.6606 11.1658 15.2129 11.1658H16.2129C16.7652 11.1658 17.2129 10.7181 17.2129 10.1658V1.49915C17.2129 0.946861 16.7652 0.499146 16.2129 0.499146ZM10.5462 2.83248H11.5462C12.0985 2.83248 12.5462 3.28019 12.5462 3.83248V10.1658C12.5462 10.7181 12.0985 11.1658 11.5462 11.1658H10.5462C9.99394 11.1658 9.54622 10.7181 9.54622 10.1658V3.83248C9.54622 3.28019 9.99394 2.83248 10.5462 2.83248ZM6.87956 5.16581H5.87956C5.32727 5.16581 4.87956 5.61353 4.87956 6.16581V10.1658C4.87956 10.7181 5.32727 11.1658 5.87956 11.1658H6.87956C7.43184 11.1658 7.87956 10.7181 7.87956 10.1658V6.16581C7.87956 5.61353 7.43184 5.16581 6.87956 5.16581ZM2.21289 7.16581H1.21289C0.660606 7.16581 0.212891 7.61353 0.212891 8.16581V10.1658C0.212891 10.7181 0.660606 11.1658 1.21289 11.1658H2.21289C2.76518 11.1658 3.21289 10.7181 3.21289 10.1658V8.16581C3.21289 7.61353 2.76518 7.16581 2.21289 7.16581Z" fill="#383838"/>
</svg>
