<svg width="18" height="12" viewBox="0 0 18 12" fill="none" xmlns="http://www.w3.org/2000/svg">
<path fill-rule="evenodd" clip-rule="evenodd" d="M16.4263 0.335938H15.4263C14.874 0.335938 14.4263 0.783653 14.4263 1.33594V10.0026C14.4263 10.5549 14.874 11.0026 15.4263 11.0026H16.4263C16.9786 11.0026 17.4263 10.5549 17.4263 10.0026V1.33594C17.4263 0.783653 16.9786 0.335938 16.4263 0.335938ZM10.7596 2.66927H11.7596C12.3119 2.66927 12.7596 3.11699 12.7596 3.66927V10.0026C12.7596 10.5549 12.3119 11.0026 11.7596 11.0026H10.7596C10.2073 11.0026 9.7596 10.5549 9.7596 10.0026V3.66927C9.7596 3.11699 10.2073 2.66927 10.7596 2.66927ZM7.09294 5.0026H6.09294C5.54065 5.0026 5.09294 5.45032 5.09294 6.0026V10.0026C5.09294 10.5549 5.54065 11.0026 6.09294 11.0026H7.09294C7.64522 11.0026 8.09294 10.5549 8.09294 10.0026V6.0026C8.09294 5.45032 7.64522 5.0026 7.09294 5.0026ZM2.42627 7.0026H1.42627C0.873985 7.0026 0.42627 7.45032 0.42627 8.0026V10.0026C0.42627 10.5549 0.873985 11.0026 1.42627 11.0026H2.42627C2.97855 11.0026 3.42627 10.5549 3.42627 10.0026V8.0026C3.42627 7.45032 2.97855 7.0026 2.42627 7.0026Z" fill="#383838"/>
</svg>
