<svg width="18" height="12" viewBox="0 0 18 12" fill="none" xmlns="http://www.w3.org/2000/svg">
<path fill-rule="evenodd" clip-rule="evenodd" d="M16.2131 0.499146H15.2131C14.6608 0.499146 14.2131 0.946861 14.2131 1.49915V10.1658C14.2131 10.7181 14.6608 11.1658 15.2131 11.1658H16.2131C16.7654 11.1658 17.2131 10.7181 17.2131 10.1658V1.49915C17.2131 0.946861 16.7654 0.499146 16.2131 0.499146ZM10.5465 2.83248H11.5465C12.0988 2.83248 12.5465 3.28019 12.5465 3.83248V10.1658C12.5465 10.7181 12.0988 11.1658 11.5465 11.1658H10.5465C9.99418 11.1658 9.54647 10.7181 9.54647 10.1658V3.83248C9.54647 3.28019 9.99418 2.83248 10.5465 2.83248ZM6.8798 5.16581H5.8798C5.32752 5.16581 4.8798 5.61353 4.8798 6.16581V10.1658C4.8798 10.7181 5.32752 11.1658 5.8798 11.1658H6.8798C7.43209 11.1658 7.8798 10.7181 7.8798 10.1658V6.16581C7.8798 5.61353 7.43209 5.16581 6.8798 5.16581ZM2.21313 7.16581H1.21313C0.66085 7.16581 0.213135 7.61353 0.213135 8.16581V10.1658C0.213135 10.7181 0.66085 11.1658 1.21313 11.1658H2.21313C2.76542 11.1658 3.21313 10.7181 3.21313 10.1658V8.16581C3.21313 7.61353 2.76542 7.16581 2.21313 7.16581Z" fill="#383838"/>
</svg>
