<svg width="16" height="12" viewBox="0 0 16 12" fill="none" xmlns="http://www.w3.org/2000/svg">
<path fill-rule="evenodd" clip-rule="evenodd" d="M8.33383 2.57388C10.5586 2.57397 12.6982 3.41166 14.3106 4.91382C14.432 5.02979 14.6261 5.02833 14.7457 4.91054L15.9063 3.7627C15.9668 3.70296 16.0006 3.62204 16.0001 3.53784C15.9996 3.45364 15.9649 3.37311 15.9036 3.31407C11.6717 -0.660271 4.99533 -0.660271 0.763405 3.31407C0.702102 3.37307 0.66732 3.45357 0.666755 3.53777C0.66619 3.62197 0.699888 3.70292 0.760393 3.7627L1.92134 4.91054C2.04084 5.0285 2.23506 5.02997 2.3564 4.91382C3.96897 3.41157 6.10888 2.57387 8.33383 2.57388ZM8.33223 6.29943C9.55596 6.29936 10.736 6.75596 11.6431 7.58052C11.7658 7.69754 11.9591 7.695 12.0787 7.5748L13.2392 6.39764C13.3004 6.33589 13.3343 6.25213 13.3334 6.16509C13.3325 6.07805 13.2969 5.995 13.2346 5.93451C10.4723 3.35514 6.19453 3.35514 3.43224 5.93451C3.36985 5.995 3.33425 6.07809 3.33343 6.16516C3.33261 6.25223 3.36664 6.33598 3.42789 6.39764L4.58814 7.5748C4.70774 7.695 4.901 7.69754 5.02369 7.58052C5.93019 6.7565 7.10931 6.29994 8.33223 6.29943ZM10.6667 9.02302C10.6685 9.10848 10.6342 9.19086 10.5719 9.25073L8.5571 11.2419C8.49804 11.3004 8.41752 11.3333 8.3335 11.3333C8.24948 11.3333 8.16896 11.3004 8.1099 11.2419L6.0948 9.25073C6.03255 9.19082 5.99831 9.1084 6.00015 9.02295C6.002 8.9375 6.03977 8.85658 6.10455 8.79929C7.39126 7.73354 9.27575 7.73354 10.5625 8.79929C10.6272 8.85662 10.6649 8.93757 10.6667 9.02302Z" fill="black"/>
</svg>
