<svg width="16" height="12" viewBox="0 0 16 12" fill="none" xmlns="http://www.w3.org/2000/svg">
<path fill-rule="evenodd" clip-rule="evenodd" d="M7.87635 2.44054C10.0922 2.44063 12.2234 3.29207 13.8294 4.81887C13.9503 4.93674 14.1436 4.93526 14.2627 4.81554L15.4187 3.64887C15.479 3.58815 15.5126 3.50589 15.5121 3.42031C15.5116 3.33473 15.477 3.25288 15.416 3.19287C11.2009 -0.846679 4.55112 -0.846679 0.336019 3.19287C0.27496 3.25284 0.240316 3.33466 0.239753 3.42025C0.23919 3.50583 0.272754 3.5881 0.333019 3.64887L1.48935 4.81554C1.60838 4.93544 1.80183 4.93692 1.92269 4.81887C3.52884 3.29197 5.66024 2.44053 7.87635 2.44054ZM7.87635 6.2362C9.09384 6.23613 10.2679 6.68866 11.1704 7.50587C11.2924 7.62185 11.4847 7.61933 11.6037 7.5002L12.7584 6.33354C12.8192 6.27234 12.8529 6.18932 12.852 6.10306C12.8511 6.01679 12.8157 5.93448 12.7537 5.87454C10.0055 3.31815 5.74955 3.31815 3.00135 5.87454C2.93927 5.93448 2.90386 6.01683 2.90304 6.10313C2.90223 6.18942 2.93608 6.27243 2.99702 6.33354L4.15135 7.5002C4.27034 7.61933 4.46262 7.62185 4.58469 7.50587C5.48656 6.6892 6.65967 6.23671 7.87635 6.2362ZM10.1893 8.79002C10.1911 8.87653 10.1571 8.95993 10.0954 9.02054L8.09802 11.0362C8.03947 11.0954 7.95964 11.1288 7.87635 11.1288C7.79306 11.1288 7.71324 11.0954 7.65469 11.0362L5.65702 9.02054C5.59531 8.95988 5.56136 8.87646 5.56319 8.78995C5.56502 8.70344 5.60246 8.62152 5.66669 8.56354C6.94226 7.48465 8.81045 7.48465 10.086 8.56354C10.1502 8.62157 10.1876 8.70351 10.1893 8.79002Z" fill="#383838"/>
</svg>
