<svg width="16" height="12" viewBox="0 0 16 12" fill="none" xmlns="http://www.w3.org/2000/svg">
<path fill-rule="evenodd" clip-rule="evenodd" d="M7.87684 2.44054C10.0927 2.44063 12.2239 3.29207 13.8298 4.81887C13.9508 4.93674 14.1441 4.93526 14.2632 4.81554L15.4192 3.64887C15.4795 3.58815 15.5131 3.50589 15.5126 3.42031C15.5121 3.33473 15.4775 3.25288 15.4165 3.19287C11.2014 -0.846679 4.5516 -0.846679 0.336507 3.19287C0.275448 3.25284 0.240804 3.33466 0.240241 3.42025C0.239678 3.50583 0.273243 3.5881 0.333507 3.64887L1.48984 4.81554C1.60887 4.93544 1.80231 4.93692 1.92317 4.81887C3.52933 3.29197 5.66073 2.44053 7.87684 2.44054ZM7.87684 6.2362C9.09433 6.23613 10.2684 6.68866 11.1708 7.50587C11.2929 7.62185 11.4852 7.61933 11.6042 7.5002L12.7588 6.33354C12.8196 6.27234 12.8534 6.18932 12.8525 6.10306C12.8516 6.01679 12.8162 5.93448 12.7542 5.87454C10.006 3.31815 5.75004 3.31815 3.00184 5.87454C2.93976 5.93448 2.90434 6.01683 2.90353 6.10313C2.90271 6.18942 2.93657 6.27243 2.99751 6.33354L4.15184 7.5002C4.27083 7.61933 4.46311 7.62185 4.58517 7.50587C5.48705 6.6892 6.66016 6.23671 7.87684 6.2362ZM10.1898 8.79002C10.1916 8.87653 10.1576 8.95993 10.0958 9.02054L8.09851 11.0362C8.03996 11.0954 7.96013 11.1288 7.87684 11.1288C7.79355 11.1288 7.71372 11.0954 7.65517 11.0362L5.65751 9.02054C5.5958 8.95988 5.56185 8.87646 5.56368 8.78995C5.56551 8.70344 5.60295 8.62152 5.66717 8.56354C6.94275 7.48465 8.81094 7.48465 10.0865 8.56354C10.1507 8.62157 10.1881 8.70351 10.1898 8.79002Z" fill="#383838"/>
</svg>
