<svg width="8" height="8" viewBox="0 0 8 8" fill="none" xmlns="http://www.w3.org/2000/svg">
<path fill-rule="evenodd" clip-rule="evenodd" d="M7.39756 0.29917C7.66174 0.563348 7.66174 0.991666 7.39756 1.25584L4.98841 3.665L7.39756 6.07415C7.66174 6.33833 7.66174 6.76665 7.39756 7.03083C7.13339 7.295 6.70507 7.295 6.44089 7.03083L4.03174 4.62167L1.62258 7.03083C1.3584 7.295 0.930085 7.295 0.665907 7.03083C0.401729 6.76665 0.401729 6.33833 0.665907 6.07415L3.07506 3.665L0.665908 1.25584C0.40173 0.991666 0.401729 0.563348 0.665907 0.29917C0.930085 0.0349916 1.3584 0.0349915 1.62258 0.29917L4.03174 2.70832L6.44089 0.29917C6.70507 0.0349915 7.13339 0.0349916 7.39756 0.29917Z" fill="black"/>
</svg>
