<svg width="16" height="11" viewBox="0 0 16 11" fill="none" xmlns="http://www.w3.org/2000/svg">
<path fill-rule="evenodd" clip-rule="evenodd" d="M8.08997 2.27733C10.3059 2.27742 12.437 3.12886 14.043 4.65566C14.1639 4.77354 14.3572 4.77205 14.4763 4.65233L15.6323 3.48566C15.6926 3.42494 15.7262 3.34269 15.7257 3.25711C15.7252 3.17153 15.6907 3.08967 15.6296 3.02966C11.4145 -1.00989 4.76474 -1.00989 0.549642 3.02966C0.488583 3.08963 0.453939 3.17146 0.453376 3.25704C0.452813 3.34262 0.486377 3.42489 0.546642 3.48566L1.70298 4.65233C1.822 4.77223 2.01545 4.77372 2.13631 4.65566C3.74246 3.12876 5.87386 2.27732 8.08997 2.27733ZM8.08997 6.07299C9.30746 6.07292 10.4815 6.52545 11.384 7.34266C11.506 7.45864 11.6983 7.45613 11.8173 7.33699L12.972 6.17033C13.0328 6.10913 13.0665 6.02612 13.0656 5.93985C13.0648 5.85359 13.0293 5.77127 12.9673 5.71133C10.2191 3.15494 5.96317 3.15494 3.21498 5.71133C3.1529 5.77127 3.11748 5.85363 3.11666 5.93992C3.11585 6.02621 3.14971 6.10922 3.21064 6.17033L4.36497 7.33699C4.48396 7.45613 4.67625 7.45864 4.79831 7.34266C5.70018 6.52599 6.87329 6.0735 8.08997 6.07299ZM10.403 8.62681C10.4047 8.71332 10.3707 8.79672 10.309 8.85733L8.31164 10.873C8.25309 10.9322 8.17327 10.9656 8.08998 10.9656C8.00668 10.9656 7.92686 10.9322 7.86831 10.873L5.87064 8.85733C5.80893 8.79668 5.77498 8.71325 5.77681 8.62674C5.77864 8.54023 5.81609 8.45831 5.88031 8.40033C7.15588 7.32144 9.02407 7.32144 10.2996 8.40033C10.3638 8.45836 10.4012 8.54031 10.403 8.62681Z" fill="#383838"/>
</svg>
