<svg width="16" height="12" viewBox="0 0 16 12" fill="none" xmlns="http://www.w3.org/2000/svg">
<path fill-rule="evenodd" clip-rule="evenodd" d="M8.33359 2.57394C10.5583 2.57403 12.698 3.41173 14.3104 4.91388C14.4318 5.02985 14.6258 5.02839 14.7454 4.9106L15.906 3.76277C15.9666 3.70302 16.0003 3.6221 15.9998 3.5379C15.9993 3.4537 15.9646 3.37317 15.9033 3.31413C11.6714 -0.66021 4.99508 -0.66021 0.763161 3.31413C0.701858 3.37313 0.667076 3.45363 0.666511 3.53783C0.665946 3.62203 0.699644 3.70298 0.760149 3.76277L1.9211 4.9106C2.0406 5.02856 2.23482 5.03003 2.35616 4.91388C3.96872 3.41163 6.10863 2.57393 8.33359 2.57394ZM8.33198 6.29949C9.55571 6.29942 10.7358 6.75602 11.6429 7.58058C11.7656 7.6976 11.9588 7.69507 12.0784 7.57486L13.239 6.3977C13.3001 6.33596 13.334 6.25219 13.3332 6.16515C13.3323 6.07811 13.2967 5.99506 13.2343 5.93457C10.472 3.3552 6.19428 3.3552 3.432 5.93457C3.3696 5.99506 3.334 6.07815 3.33319 6.16522C3.33237 6.25229 3.3664 6.33604 3.42764 6.3977L4.58789 7.57486C4.70749 7.69507 4.90076 7.6976 5.02345 7.58058C5.92994 6.75656 7.10906 6.3 8.33198 6.29949ZM10.6664 9.02308C10.6682 9.10854 10.6339 9.19092 10.5716 9.25079L8.55686 11.2419C8.4978 11.3004 8.41728 11.3334 8.33326 11.3334C8.24924 11.3334 8.16872 11.3004 8.10966 11.2419L6.09456 9.25079C6.03231 9.19088 5.99806 9.10847 5.99991 9.02301C6.00175 8.93756 6.03953 8.85664 6.10431 8.79935C7.39101 7.7336 9.27551 7.7336 10.5622 8.79935C10.6269 8.85668 10.6647 8.93763 10.6664 9.02308Z" fill="black"/>
</svg>
