<svg width="16" height="12" viewBox="0 0 16 12" fill="none" xmlns="http://www.w3.org/2000/svg">
<path fill-rule="evenodd" clip-rule="evenodd" d="M8.33359 2.57388C10.5583 2.57397 12.698 3.41166 14.3104 4.91382C14.4318 5.02979 14.6258 5.02833 14.7454 4.91054L15.906 3.7627C15.9666 3.70296 16.0003 3.62204 15.9998 3.53784C15.9993 3.45364 15.9646 3.37311 15.9033 3.31407C11.6714 -0.660271 4.99508 -0.660271 0.763161 3.31407C0.701858 3.37307 0.667076 3.45357 0.666511 3.53777C0.665946 3.62197 0.699644 3.70292 0.760149 3.7627L1.9211 4.91054C2.0406 5.0285 2.23482 5.02997 2.35616 4.91382C3.96872 3.41157 6.10863 2.57387 8.33359 2.57388ZM8.33198 6.29943C9.55571 6.29936 10.7358 6.75596 11.6429 7.58052C11.7656 7.69754 11.9588 7.695 12.0784 7.5748L13.239 6.39764C13.3001 6.33589 13.334 6.25213 13.3332 6.16509C13.3323 6.07805 13.2967 5.995 13.2343 5.93451C10.472 3.35514 6.19428 3.35514 3.432 5.93451C3.3696 5.995 3.334 6.07809 3.33319 6.16516C3.33237 6.25223 3.3664 6.33598 3.42764 6.39764L4.58789 7.5748C4.70749 7.695 4.90076 7.69754 5.02345 7.58052C5.92994 6.7565 7.10906 6.29994 8.33198 6.29943ZM10.6664 9.02302C10.6682 9.10848 10.6339 9.19086 10.5716 9.25073L8.55686 11.2419C8.4978 11.3004 8.41728 11.3333 8.33326 11.3333C8.24924 11.3333 8.16872 11.3004 8.10966 11.2419L6.09456 9.25073C6.03231 9.19082 5.99806 9.1084 5.99991 9.02295C6.00175 8.9375 6.03953 8.85658 6.10431 8.79929C7.39101 7.73354 9.27551 7.73354 10.5622 8.79929C10.6269 8.85662 10.6647 8.93757 10.6664 9.02302Z" fill="black"/>
</svg>
